<?xml version="1.0" standalone="no"?>
<!DOCTYPE svg PUBLIC "-//W3C//DTD SVG 20010904//EN"
 "http://www.w3.org/TR/2001/REC-SVG-20010904/DTD/svg10.dtd">
<svg version="1.0" xmlns="http://www.w3.org/2000/svg"
 width="524.000000pt" height="524.000000pt" viewBox="0 0 524.000000 524.000000"
 preserveAspectRatio="xMidYMid meet">
<metadata>
Created by potrace 1.11, written by Peter Selinger 2001-2013
</metadata>
<g transform="translate(0.000000,524.000000) scale(0.100000,-0.100000)"
fill="#000000" stroke="none">
<path d="M1447 4552 c-10 -2 -14 -8 -10 -15 4 -8 1 -7 -9 1 -9 7 -19 9 -22 4
-3 -5 -35 -8 -71 -8 -36 1 -65 -3 -65 -8 0 -5 -3 -6 -7 -3 -3 4 -13 1 -21 -6
-13 -10 -14 -9 -7 2 6 11 5 12 -6 5 -15 -9 -20 -10 -57 -12 -13 -1 -21 -6 -18
-11 4 -5 -3 -7 -14 -4 -11 3 -20 0 -20 -6 0 -6 -5 -11 -11 -11 -5 0 -7 5 -4
10 9 15 -4 12 -22 -5 -8 -8 -19 -13 -24 -10 -5 4 -9 1 -9 -5 0 -7 -7 -10 -15
-6 -10 3 -15 -1 -15 -12 0 -14 -2 -14 -9 -3 -7 11 -11 10 -22 -7 -7 -11 -19
-18 -27 -14 -10 3 -13 1 -8 -6 5 -8 0 -12 -14 -12 -14 0 -19 -4 -14 -12 5 -8
2 -9 -10 -5 -10 4 -15 3 -11 -3 3 -6 1 -10 -5 -10 -6 0 -9 -4 -5 -9 3 -5 0
-13 -6 -17 -8 -5 -9 -3 -4 6 5 8 3 11 -6 8 -8 -3 -13 -11 -11 -17 1 -6 -3 -11
-9 -11 -5 0 -7 -4 -4 -10 3 -6 -1 -7 -9 -4 -11 4 -16 0 -16 -10 0 -9 -9 -25
-20 -36 -11 -11 -15 -20 -9 -20 8 0 8 -5 -1 -15 -7 -8 -17 -12 -24 -8 -7 4 -7
2 1 -7 9 -10 8 -18 -4 -36 -8 -13 -12 -24 -8 -24 4 0 2 -7 -5 -15 -6 -8 -9
-19 -5 -25 3 -5 0 -10 -7 -10 -9 0 -9 -3 2 -10 13 -9 13 -10 0 -10 -13 0 -15
-51 -15 -402 0 -257 4 -406 10 -410 6 -5 6 -8 -2 -8 -6 0 -10 -11 -9 -25 2
-13 0 -22 -4 -20 -12 7 -18 -41 -8 -59 7 -12 5 -14 -6 -10 -11 4 -14 0 -11
-15 2 -12 -1 -21 -7 -21 -5 0 -8 -7 -4 -15 3 -8 -2 -19 -11 -23 -10 -6 -14
-16 -10 -26 4 -9 2 -15 -6 -13 -7 1 -11 -4 -10 -10 2 -7 -3 -13 -11 -13 -8 0
-18 -5 -22 -12 -5 -7 -3 -8 6 -3 8 5 11 3 8 -6 -3 -8 -11 -13 -17 -12 -6 2
-10 0 -9 -5 4 -15 -14 -52 -23 -47 -5 4 -9 2 -9 -4 0 -6 -7 -8 -15 -4 -9 3
-15 2 -14 -3 4 -23 -3 -34 -21 -34 -11 0 -23 -6 -26 -14 -3 -8 -17 -17 -30
-20 -14 -4 -22 -11 -19 -15 3 -5 -6 -8 -20 -7 -15 2 -22 -1 -18 -7 4 -7 -1 -8
-13 -3 -10 4 -15 4 -11 0 9 -9 -51 -46 -62 -39 -5 2 -14 -2 -21 -11 -11 -12
-15 -12 -21 -2 -7 11 -9 11 -9 0 0 -7 -4 -10 -10 -7 -6 3 -10 2 -10 -3 0 -5
-14 -8 -31 -7 -18 1 -33 -4 -36 -11 -3 -8 -9 -11 -14 -8 -6 3 -16 0 -24 -6 -8
-7 -24 -10 -35 -7 -11 3 -20 1 -20 -5 0 -5 -4 -7 -9 -3 -5 3 -12 1 -16 -5 -4
-6 -11 -8 -16 -5 -5 4 -9 1 -9 -4 0 -6 -7 -11 -17 -11 -9 0 -14 -3 -10 -6 3
-3 2 -16 -3 -29 -5 -14 -5 -26 3 -34 6 -6 7 -11 3 -11 -5 0 -3 -6 3 -14 7 -8
23 -13 37 -10 13 2 24 0 24 -6 0 -12 22 -9 32 5 5 6 8 3 8 -6 0 -12 8 -16 30
-14 16 1 30 -1 30 -5 0 -4 11 -6 25 -5 14 2 23 0 20 -5 -3 -4 2 -11 11 -14 10
-4 13 -2 8 7 -5 8 -2 7 9 -2 9 -7 17 -10 17 -5 0 5 5 2 10 -8 6 -10 18 -14 30
-11 11 3 27 -2 36 -12 14 -13 19 -14 25 -3 6 9 9 9 9 1 0 -12 38 -29 54 -24 5
1 4 -4 -2 -12 -10 -12 -8 -13 13 -9 16 3 25 0 25 -8 0 -7 7 -10 16 -6 15 6 15
4 3 -11 -7 -10 -9 -15 -5 -11 5 4 15 3 23 -3 7 -6 13 -8 13 -3 0 4 7 -1 16
-12 8 -10 12 -13 8 -5 -5 10 -3 12 5 7 7 -5 10 -14 7 -21 -7 -20 5 -26 22 -12
13 9 14 9 8 0 -4 -8 -2 -13 4 -13 6 0 8 -5 4 -12 -5 -8 -2 -9 11 -4 15 5 16 4
5 -9 -8 -10 -9 -15 -1 -15 6 0 11 -5 11 -10 0 -6 9 -20 20 -32 11 -12 20 -30
20 -40 0 -10 7 -18 15 -18 8 0 15 -5 15 -11 0 -5 -6 -7 -12 -4 -7 4 -2 -3 12
-15 14 -12 19 -19 13 -15 -7 3 -13 1 -13 -4 0 -6 5 -11 12 -11 6 0 9 -3 5 -6
-3 -3 -2 -16 3 -29 5 -14 5 -26 -2 -33 -6 -6 -6 -12 1 -16 8 -5 8 -13 1 -26
-7 -12 -7 -27 0 -44 5 -14 6 -26 2 -26 -4 0 -7 -13 -7 -30 0 -16 3 -30 7 -30
4 0 3 -12 -1 -28 -5 -15 -4 -37 0 -50 5 -12 5 -22 1 -22 -4 0 -7 -13 -7 -30 0
-16 3 -30 7 -30 4 0 3 -12 -1 -28 -5 -15 -4 -37 0 -50 5 -12 5 -22 1 -22 -4 0
-7 -13 -7 -30 0 -16 3 -30 6 -30 4 0 3 -15 -1 -32 -4 -21 -2 -43 7 -60 11 -22
11 -28 1 -28 -9 0 -10 -2 -2 -8 7 -4 12 -37 12 -77 0 -39 1 -75 2 -80 1 -6 1
-14 0 -20 -6 -28 1 -189 9 -199 4 -6 7 -19 6 -29 -2 -9 1 -17 7 -17 5 0 8 -6
6 -12 -3 -7 1 -24 8 -37 7 -14 11 -28 8 -33 -3 -4 2 -8 10 -8 9 0 16 -7 16
-16 0 -8 4 -13 9 -9 6 3 8 -4 6 -15 -4 -19 6 -25 30 -20 5 1 7 -1 3 -5 -10
-10 24 -45 36 -38 6 3 8 3 4 -2 -8 -9 15 -35 32 -35 6 0 9 -3 7 -7 -5 -8 22
-38 33 -38 3 0 4 -4 2 -8 -1 -5 2 -6 8 -2 6 4 22 0 35 -9 13 -9 37 -17 54 -18
17 -1 31 -6 31 -10 0 -4 8 -8 18 -8 10 0 24 -6 31 -13 11 -10 12 -9 6 3 -6 12
-5 13 6 2 7 -6 26 -12 41 -12 15 0 28 -4 28 -8 0 -5 17 -8 38 -6 20 1 43 -3
51 -9 12 -10 13 -9 6 3 -7 13 -6 13 11 0 16 -13 61 -16 291 -15 150 1 276 4
280 8 9 10 13 67 5 68 -4 1 -101 2 -217 3 -129 1 -209 5 -208 11 1 6 -24 10
-55 9 -31 -1 -65 3 -74 7 -11 6 -18 4 -21 -4 -4 -7 -6 -6 -6 5 -1 12 -8 15
-31 12 -19 -3 -30 -1 -30 6 0 7 -7 9 -16 6 -9 -4 -23 -1 -31 6 -8 6 -26 13
-41 14 -15 2 -28 8 -30 14 -3 7 -9 7 -20 -2 -12 -10 -14 -10 -8 0 4 7 2 12 -4
12 -6 0 -8 5 -4 13 6 9 4 9 -8 -1 -13 -10 -18 -10 -24 -1 -5 8 -3 9 7 4 12 -8
12 -6 0 9 -11 13 -16 14 -22 4 -6 -9 -9 -6 -9 9 0 16 -4 21 -15 17 -10 -4 -15
0 -15 12 0 16 -2 17 -11 4 -9 -12 -10 -11 -6 7 4 16 1 20 -11 16 -11 -5 -14
-2 -9 11 4 10 3 15 -3 11 -6 -3 -11 -1 -11 4 -1 6 -2 15 -3 20 0 5 -5 13 -10
18 -5 5 -6 2 -2 -7 4 -8 1 -7 -8 3 -8 11 -12 25 -9 33 3 8 0 14 -7 14 -9 0 -9
4 1 17 10 11 10 14 2 9 -9 -5 -13 1 -13 23 0 16 -5 33 -10 36 -8 5 -8 11 0 20
7 9 7 14 1 17 -7 2 -11 169 -11 500 -1 306 -4 498 -10 500 -6 2 -11 15 -12 31
-1 15 -8 27 -14 27 -7 0 -11 11 -9 26 2 18 -2 24 -11 20 -14 -5 -18 3 -15 39
2 17 0 18 -9 5 -10 -12 -11 -11 -7 8 3 12 2 20 -3 17 -4 -2 -16 5 -26 17 -11
12 -14 18 -7 15 7 -5 9 0 5 15 -3 12 -7 17 -10 10 -2 -6 -8 -12 -13 -12 -4 0
-6 6 -3 13 2 7 -8 24 -22 37 -15 14 -24 19 -20 13 4 -8 2 -11 -6 -8 -7 3 -18
15 -23 28 -6 13 -17 21 -28 19 -9 -2 -17 2 -17 8 0 6 -4 9 -9 6 -5 -3 -11 3
-14 14 -3 13 -10 18 -21 14 -9 -3 -16 -1 -16 5 0 6 -3 10 -7 10 -22 -4 -33 3
-34 19 0 10 -3 12 -6 5 -2 -7 -9 -13 -14 -13 -6 0 -7 5 -3 12 4 7 3 8 -4 4 -7
-4 -18 -4 -24 1 -13 8 -33 13 -55 15 -7 1 -13 8 -14 17 0 10 -2 12 -6 4 -2 -7
-9 -13 -14 -13 -6 0 -7 4 -4 10 4 6 -6 8 -24 6 -17 -2 -28 1 -25 5 5 9 -9 12
-49 12 -9 0 -17 4 -17 9 0 5 -4 7 -9 4 -4 -3 -17 1 -27 9 -18 14 -18 14 6 16
14 1 29 1 34 0 5 -1 13 4 17 11 7 10 9 10 9 -2 0 -9 3 -11 8 -5 10 14 56 39
48 27 -4 -6 6 -6 23 1 17 6 28 14 26 17 -2 3 9 5 26 4 16 -1 27 2 24 6 -3 4 2
11 11 14 9 4 13 2 8 -5 -9 -14 47 21 64 41 12 13 13 12 8 -5 -5 -17 -3 -16 15
5 11 14 18 19 14 13 -4 -9 -1 -11 9 -7 9 3 14 9 11 13 -2 4 4 14 14 23 13 11
23 13 37 5 10 -5 16 -6 12 -2 -4 4 0 14 10 22 16 12 15 13 -3 7 -12 -4 -7 3
12 17 19 14 31 30 28 38 -5 11 -3 12 10 1 12 -10 15 -10 15 4 0 9 7 16 16 16
13 0 14 3 5 14 -10 12 -9 14 6 11 25 -4 38 6 22 16 -11 7 -11 9 -1 9 7 0 17
12 22 26 6 14 15 22 20 19 6 -4 10 -3 9 2 -3 20 2 34 11 28 6 -3 10 3 10 15 0
12 4 18 10 15 6 -3 7 1 4 9 -3 9 -2 16 4 16 5 0 7 11 4 25 -3 16 2 33 14 46
17 19 17 20 -2 14 -16 -5 -17 -4 -4 5 13 10 15 68 12 433 -2 332 0 422 10 429
10 6 10 8 -1 8 -11 0 -11 3 -1 15 7 8 10 24 7 35 -3 11 -1 23 4 26 5 3 7 9 5
13 -3 4 4 18 15 29 13 15 15 22 7 22 -8 1 -6 6 5 14 10 8 18 17 18 20 -3 24 0
30 9 16 8 -12 10 -10 10 10 0 15 3 20 8 13 5 -8 14 -3 27 18 11 16 26 27 33
24 9 -3 10 0 3 14 -9 16 -7 18 14 15 14 -1 23 2 19 7 -5 8 9 13 29 10 4 -1 10
6 14 15 5 13 7 13 14 2 7 -10 9 -10 9 0 0 6 7 12 15 12 8 0 15 6 15 13 0 8 4
7 10 -3 5 -8 10 -10 10 -5 0 10 17 15 63 18 9 1 17 4 17 8 0 3 10 5 23 5 12
-1 27 0 32 3 22 12 49 14 270 16 300 4 293 4 276 14 -11 7 -11 9 0 13 16 5 21
68 6 69 -36 3 -446 3 -460 1z m-762 -2072 c3 -5 1 -10 -4 -10 -6 0 -11 5 -11
10 0 6 2 10 4 10 3 0 8 -4 11 -10z m70 -60 c3 -5 1 -10 -4 -10 -6 0 -11 5 -11
10 0 6 2 10 4 10 3 0 8 -4 11 -10z"/>
<path d="M2609 4549 c-7 -4 -21 -6 -31 -4 -10 2 -18 0 -18 -5 0 -5 -7 -7 -15
-4 -8 4 -15 1 -15 -4 0 -6 -9 -9 -20 -7 -11 2 -20 0 -20 -6 0 -5 -9 -9 -20 -9
-11 0 -20 -5 -20 -11 0 -6 -7 -9 -14 -6 -10 4 -13 1 -9 -9 3 -9 -1 -14 -11
-14 -9 0 -19 -7 -22 -15 -4 -8 -11 -12 -18 -8 -6 4 -4 -2 4 -12 8 -10 10 -16
3 -12 -13 8 -43 -1 -43 -14 0 -4 8 -6 18 -4 9 3 4 -1 -13 -9 -16 -8 -26 -15
-22 -16 4 0 -1 -10 -13 -22 -11 -12 -20 -28 -20 -35 0 -7 -4 -13 -9 -13 -6 0
-8 -9 -6 -21 3 -16 0 -19 -12 -15 -12 5 -13 4 -5 -7 7 -8 9 -17 5 -20 -8 -9
-10 -178 -1 -183 4 -3 5 -10 2 -17 -2 -7 4 -24 15 -36 12 -13 18 -28 15 -32
-3 -5 0 -9 5 -9 6 0 11 -5 11 -11 0 -5 -5 -7 -12 -3 -7 4 -8 3 -4 -5 4 -6 11
-9 15 -6 5 2 16 -4 26 -15 10 -11 15 -20 11 -20 -4 0 -2 -9 4 -21 7 -11 18
-18 25 -15 8 3 19 -6 27 -24 7 -16 16 -26 20 -24 4 3 8 0 8 -6 0 -6 4 -9 9 -5
6 3 14 -3 20 -12 8 -14 10 -15 11 -3 0 11 2 12 8 3 5 -7 20 -14 35 -15 15 -1
27 -5 27 -9 0 -4 51 -6 114 -5 63 0 112 5 109 10 -3 5 0 6 8 4 8 -3 23 2 33
11 11 9 16 10 12 4 -5 -9 -2 -11 8 -7 9 3 14 10 11 14 -3 5 -1 11 5 15 5 3 10
1 10 -5 0 -7 7 -5 16 4 8 9 21 13 27 9 7 -4 6 0 -1 10 -12 14 -11 16 7 12 14
-3 18 0 14 11 -3 9 0 14 8 12 8 -2 13 3 11 10 -1 7 9 17 23 22 14 5 25 12 25
15 0 4 -4 3 -10 0 -5 -3 -10 -2 -10 4 0 5 10 13 21 16 15 5 18 10 9 15 -8 5
-7 9 5 14 9 3 14 10 11 15 -4 5 0 12 6 14 10 4 10 6 0 6 -10 1 -10 5 2 17 18
17 18 18 20 124 2 76 -8 129 -28 142 -7 5 -7 8 2 8 10 0 10 4 -2 16 -9 8 -16
24 -16 35 0 11 -4 17 -10 14 -5 -3 -10 3 -10 15 0 14 -4 19 -12 14 -8 -5 -9
-2 -5 10 4 9 3 15 -2 11 -15 -9 -40 6 -34 21 5 13 -8 19 -30 15 -5 -1 -6 3 -2
9 3 5 -1 10 -10 10 -10 0 -13 5 -9 12 5 8 0 9 -14 6 -12 -4 -20 -3 -17 2 3 4
-3 14 -12 21 -14 12 -16 12 -8 -1 5 -9 -1 -7 -15 5 -13 11 -20 15 -16 8 4 -8
-2 -8 -20 2 -15 8 -32 11 -37 8 -5 -3 -12 -1 -16 5 -8 13 -85 22 -102 11z"/>
<path d="M3348 4552 c-26 -3 -27 -6 -26 -49 2 -24 4 -40 6 -34 2 7 11 6 25 -2
16 -10 80 -13 247 -12 151 2 230 -2 239 -9 12 -9 13 -8 6 3 -6 11 -5 12 6 5 8
-5 17 -9 22 -10 4 -1 8 -2 10 -4 1 -1 11 -3 22 -5 11 -1 36 -6 55 -10 19 -4
43 -7 53 -7 10 1 15 -4 11 -10 -5 -7 0 -9 14 -6 12 4 22 2 22 -4 0 -6 9 -8 20
-5 11 3 18 0 17 -7 -1 -6 5 -11 13 -11 8 0 22 -7 30 -15 11 -12 12 -12 5 -1
-9 12 -7 12 12 1 12 -8 21 -16 19 -20 -4 -9 42 -48 50 -41 4 3 4 1 1 -5 -4 -6
1 -20 9 -30 9 -10 13 -13 9 -7 -4 9 -1 11 9 7 9 -3 14 -10 11 -14 -3 -5 2 -16
11 -24 11 -11 12 -16 3 -16 -7 0 -4 -6 6 -14 13 -9 20 -28 21 -53 1 -21 3 -40
4 -43 1 -3 2 -9 1 -14 -1 -4 2 -13 7 -20 6 -6 9 -194 9 -432 0 -232 4 -427 8
-434 4 -7 10 -34 12 -59 2 -25 4 -52 5 -58 1 -9 5 -9 13 -3 17 14 26 0 14 -23
-8 -13 -8 -17 0 -13 5 4 18 -6 27 -21 10 -15 24 -34 33 -40 13 -11 12 -13 -5
-13 -15 0 -16 -2 -4 -10 9 -6 19 -5 28 3 11 8 13 8 12 -4 -4 -28 0 -38 20 -44
11 -4 17 -11 14 -17 -5 -7 1 -9 15 -5 18 4 20 3 10 -9 -11 -14 -2 -19 24 -15
5 1 6 -3 2 -9 -3 -5 -1 -10 5 -10 6 0 8 -5 4 -12 -4 -6 -3 -8 4 -4 6 3 14 1
17 -5 4 -5 13 -8 20 -5 9 3 12 -2 10 -15 -4 -18 -2 -19 12 -7 9 7 14 8 10 2
-7 -12 19 -29 40 -25 6 1 18 -8 27 -20 9 -14 21 -19 31 -15 13 5 16 2 11 -10
-5 -14 -4 -15 8 -5 11 9 17 8 30 -4 9 -9 20 -14 25 -10 5 3 12 1 16 -4 3 -5
14 -8 25 -6 11 2 20 0 20 -6 0 -5 9 -9 21 -9 13 0 18 -4 13 -12 -5 -9 -2 -9 9
1 9 7 17 9 17 3 0 -5 7 -13 16 -16 8 -3 13 -2 10 3 -3 4 6 6 20 3 19 -3 22 -8
14 -16 -6 -6 -15 -12 -21 -12 -5 -1 -10 -3 -11 -4 -2 -1 -14 -3 -28 -4 -14 -1
-31 -5 -37 -9 -7 -5 -13 -6 -13 -2 0 3 -13 -1 -29 -9 -22 -12 -31 -12 -41 -3
-10 9 -11 9 -6 -1 5 -8 -3 -14 -23 -18 -17 -4 -31 -10 -31 -15 0 -5 -7 -5 -17
-2 -11 4 -14 3 -9 -5 4 -7 2 -12 -3 -12 -6 0 -11 5 -11 12 0 6 -6 4 -13 -7 -9
-11 -19 -15 -27 -10 -9 5 -11 4 -6 -3 5 -8 0 -12 -13 -12 -11 0 -28 -11 -37
-26 -9 -14 -23 -23 -30 -20 -8 3 -14 1 -14 -4 0 -6 -7 -10 -16 -10 -9 0 -12
-5 -8 -12 5 -8 2 -9 -9 -5 -9 3 -16 3 -16 -1 3 -20 -3 -23 -18 -11 -15 13 -15
12 -4 -8 10 -20 9 -22 -5 -16 -13 5 -15 3 -9 -7 6 -10 4 -12 -8 -7 -11 4 -14
2 -10 -8 3 -8 -2 -18 -11 -21 -9 -3 -13 -11 -9 -17 4 -6 0 -8 -10 -4 -15 6
-24 -12 -14 -27 1 -2 -7 -12 -18 -22 -12 -11 -14 -14 -6 -9 12 9 12 7 2 -12
-6 -13 -16 -23 -22 -23 -6 0 -8 -4 -4 -9 3 -5 -1 -15 -8 -23 -8 -7 -12 -19 -9
-27 3 -9 0 -11 -8 -6 -9 5 -11 4 -6 -4 4 -6 3 -17 -2 -24 -12 -16 -12 20 -13
-537 -1 -322 -5 -497 -12 -502 -6 -3 -10 -20 -9 -37 0 -18 -4 -29 -9 -25 -13
7 -7 -19 6 -28 6 -5 5 -8 -2 -8 -7 0 -13 -7 -13 -16 0 -8 -5 -12 -10 -9 -6 4
-10 3 -9 -2 4 -24 -3 -43 -17 -43 -8 0 -12 -5 -9 -10 3 -6 1 -10 -5 -10 -7 0
-10 -6 -7 -14 4 -9 -4 -18 -23 -24 -16 -6 -34 -20 -40 -31 -6 -12 -15 -19 -19
-16 -5 2 -19 -4 -31 -15 -25 -21 -35 -26 -26 -11 4 5 -5 4 -18 -2 -13 -7 -22
-16 -19 -20 3 -5 -5 -4 -17 3 -15 8 -20 8 -16 1 7 -10 -8 -15 -41 -14 -7 1
-13 -3 -13 -8 0 -4 -9 -6 -19 -4 -11 2 -22 -3 -25 -12 -5 -12 -9 -13 -21 -3
-9 7 -15 8 -15 2 0 -6 -25 -9 -60 -8 -48 2 -60 -1 -61 -14 0 -10 -2 -11 -6 -2
-2 6 -10 9 -16 5 -7 -4 -102 -8 -212 -9 -225 -2 -221 -2 -212 -10 3 -4 2 -15
-4 -25 -7 -13 -6 -19 1 -19 6 0 8 -4 5 -10 -8 -12 -15 -12 180 -14 88 -1 166
3 173 8 7 5 12 5 12 0 0 -11 181 -11 198 0 7 4 16 5 21 1 5 -3 12 -1 15 4 3 5
26 8 51 6 24 -1 42 1 40 5 -3 4 4 10 15 13 13 3 18 1 13 -6 -4 -7 1 -6 10 2 9
7 17 10 17 6 0 -4 7 -2 15 5 8 7 15 9 15 6 0 -4 10 -1 23 6 12 6 31 13 41 15
11 2 26 9 35 16 12 10 13 9 6 -2 -5 -8 6 -5 23 8 18 12 36 20 41 16 5 -3 12 4
16 15 3 11 11 20 16 20 6 0 7 -6 3 -12 -4 -8 -3 -10 2 -5 5 5 9 14 9 20 0 7 8
11 18 11 13 -2 15 1 7 10 -13 17 0 29 16 15 10 -8 12 -6 9 11 -3 16 0 20 11
16 9 -3 12 -1 9 4 -3 6 2 10 12 11 10 0 13 3 6 5 -7 3 -4 13 10 28 12 12 25
21 29 19 4 -2 10 2 14 8 4 7 3 9 -4 5 -6 -3 -13 -2 -17 4 -3 5 1 10 9 10 9 0
15 3 14 8 -5 17 14 52 25 45 9 -5 9 -3 2 8 -17 24 -3 85 18 72 6 -4 7 -1 2 7
-11 18 -13 60 -2 60 4 0 3 9 -3 19 -6 12 -6 22 -1 25 5 3 5 21 1 41 -5 21 -4
35 1 35 6 0 5 8 -1 19 -5 11 -6 22 -1 25 4 3 5 23 1 43 -3 21 -3 51 1 67 5 16
6 33 3 38 -3 4 -1 8 5 8 5 0 8 8 6 18 -1 9 2 23 8 30 5 7 6 17 1 25 -5 6 -8
30 -7 52 4 78 4 100 0 128 -2 15 -1 27 3 27 9 0 8 18 -1 35 -2 6 -4 28 -2 50
4 77 4 100 0 128 -2 15 0 27 5 27 5 0 5 7 0 16 -5 10 -6 32 -1 53 5 21 4 40
-1 45 -6 6 -3 17 8 30 9 11 11 16 4 12 -8 -5 -7 5 5 28 9 20 24 36 32 36 13 0
13 2 3 9 -11 6 -10 10 3 15 10 3 15 12 12 21 -4 10 -1 12 10 8 12 -5 15 -2 10
11 -4 10 -1 19 8 22 8 4 15 14 15 24 0 21 22 42 41 37 8 -2 11 -2 7 0 -15 9
-8 25 8 19 8 -3 13 -2 10 3 -3 5 2 15 11 22 14 12 16 12 9 -1 -4 -9 -1 -8 7 3
8 9 22 17 31 17 11 0 14 5 10 12 -5 8 0 9 15 5 13 -3 21 -3 18 0 -3 3 0 11 6
18 9 9 16 10 25 2 10 -8 12 -7 10 4 -2 8 7 15 22 17 14 2 31 11 38 20 10 13
12 13 12 1 0 -11 2 -12 9 -1 4 8 11 13 15 13 22 -3 36 0 32 7 -3 5 12 8 33 8
25 -1 37 3 34 10 -3 8 12 10 48 8 34 -2 59 2 73 11 11 8 29 15 39 15 10 0 16
4 12 9 -3 6 0 13 7 18 15 10 17 35 3 46 -6 4 -4 11 5 18 13 9 13 10 -1 6 -9
-3 -25 2 -36 12 -10 10 -29 17 -41 16 -13 -1 -25 2 -28 7 -3 4 -10 6 -15 3 -5
-4 -9 -1 -9 4 0 6 -5 11 -11 11 -5 0 -7 -6 -3 -12 4 -7 -1 -6 -12 3 -31 26
-48 34 -39 19 6 -10 4 -11 -6 -4 -13 8 -25 12 -59 18 -8 2 -23 6 -32 10 -9 4
-23 4 -30 0 -10 -6 -11 -5 -1 7 10 12 8 15 -10 16 -12 1 -23 7 -25 12 -2 5
-10 7 -18 4 -8 -3 -14 0 -14 7 0 6 -4 8 -10 5 -5 -3 -10 -1 -10 4 0 6 -7 11
-15 11 -8 0 -15 5 -15 10 0 6 -9 10 -21 10 -13 0 -18 4 -13 13 5 7 0 6 -11 -3
-11 -9 -16 -10 -11 -2 4 6 2 12 -3 12 -6 0 -11 8 -11 18 0 14 -2 15 -10 2 -8
-13 -10 -12 -10 3 0 15 -9 20 -30 19 -3 0 -12 7 -20 16 -13 14 -12 15 3 9 11
-4 16 -3 12 3 -3 6 -13 10 -22 10 -10 0 -13 6 -9 16 5 12 2 15 -9 10 -9 -3
-13 -2 -10 4 3 6 1 10 -6 10 -6 0 -9 8 -6 20 3 11 1 18 -3 15 -5 -3 -14 4 -20
15 -6 11 -7 20 -3 20 4 0 2 4 -5 9 -7 4 -15 14 -16 22 -2 8 -6 21 -10 30 -4 8
-8 29 -9 45 -1 16 -6 32 -10 35 -5 4 -11 33 -13 65 -3 33 -6 67 -8 77 -2 9 0
17 5 17 6 0 5 8 -1 19 -6 12 -6 22 -1 25 5 3 5 21 1 41 -5 21 -4 35 1 35 6 0
5 8 -1 19 -6 12 -6 22 -1 25 5 3 5 21 1 41 -5 21 -4 35 1 35 6 0 5 8 -1 19 -6
12 -6 22 -1 25 5 3 5 21 1 41 -5 21 -4 35 1 35 6 0 5 8 -1 19 -6 12 -6 22 -1
25 5 3 5 21 1 41 -5 21 -4 35 1 35 6 0 5 8 -1 19 -5 11 -6 22 -2 25 5 3 5 30
2 60 -3 31 -2 56 2 56 5 0 4 9 -2 20 -6 11 -7 20 -2 20 5 0 9 7 9 15 0 8 -4
15 -9 15 -4 0 -8 10 -8 22 0 12 -7 30 -17 40 -11 13 -12 18 -3 18 9 0 10 3 1
13 -6 8 -8 17 -4 20 3 4 1 7 -5 7 -7 0 -11 3 -11 8 4 24 -2 42 -13 36 -8 -5
-9 0 -6 14 4 12 2 20 -3 16 -8 -5 -13 10 -6 19 1 2 -4 11 -12 21 -11 13 -16
14 -29 4 -13 -10 -14 -10 -8 0 8 13 -18 45 -28 34 -4 -3 -4 2 0 12 5 12 4 17
-3 13 -13 -8 -55 27 -45 39 4 4 -2 2 -12 -6 -13 -10 -17 -10 -12 -2 4 7 1 12
-8 12 -9 0 -16 4 -16 9 0 8 -20 18 -55 27 -11 3 -92 32 -115 41 -8 3 -28 7
-45 8 -16 2 -41 7 -55 12 -14 5 -52 8 -85 8 -33 -1 -63 3 -66 8 -6 9 -417 16
-481 9z m1057 -231 c3 -5 2 -12 -3 -15 -5 -3 -9 1 -9 9 0 17 3 19 12 6z"/>
<path d="M3096 3648 c2 -4 0 -9 -6 -13 -5 -3 -10 -2 -10 3 0 7 -33 8 -50 2 -3
-1 -8 -2 -12 -1 -5 0 -8 -3 -8 -7 0 -5 -12 -9 -27 -9 -16 -1 -39 -4 -53 -8
-14 -4 -35 -7 -47 -8 -13 -1 -23 -5 -23 -10 0 -4 -4 -5 -10 -2 -5 3 -10 1 -10
-5 0 -6 -4 -8 -10 -5 -5 3 -16 3 -22 -2 -13 -8 -18 -9 -53 -16 -11 -3 -19 -10
-18 -15 2 -6 -4 -9 -12 -6 -9 4 -22 1 -30 -6 -9 -7 -18 -10 -22 -6 -3 3 0 6 7
6 7 0 11 3 7 6 -3 3 -20 -4 -37 -16 -17 -12 -34 -20 -37 -17 -3 4 -12 -1 -20
-9 -8 -8 -19 -12 -24 -9 -5 4 -9 -2 -9 -12 0 -14 -2 -15 -9 -4 -6 9 -11 10
-15 2 -4 -6 -16 -11 -27 -11 -11 0 -17 -5 -14 -10 4 -6 3 -10 -2 -9 -27 5 -53
-2 -47 -13 5 -7 2 -9 -9 -5 -9 3 -18 0 -21 -9 -3 -9 -10 -12 -16 -9 -5 3 -10
1 -10 -4 0 -6 -7 -11 -16 -11 -8 0 -13 -4 -10 -8 2 -4 -4 -13 -14 -20 -17 -10
-18 -9 -13 5 6 15 5 16 -9 3 -9 -8 -14 -18 -11 -22 2 -5 -3 -8 -11 -8 -9 0
-16 -7 -16 -15 0 -8 -5 -15 -11 -15 -5 0 -7 6 -3 13 5 8 2 7 -10 -2 -10 -9
-13 -17 -7 -20 6 -4 1 -12 -10 -20 -12 -7 -18 -8 -14 -2 3 6 4 11 1 11 -3 0
-10 -10 -17 -21 -9 -17 -8 -20 3 -14 7 4 2 -2 -11 -13 -16 -13 -21 -24 -16
-33 8 -12 6 -12 -8 -1 -14 12 -16 11 -12 -6 2 -11 -3 -23 -11 -26 -8 -3 -11
-12 -7 -23 6 -16 5 -16 -11 -4 -9 8 -16 10 -15 5 4 -22 -2 -45 -10 -39 -6 3
-8 -4 -6 -15 2 -11 0 -20 -6 -20 -5 0 -8 -3 -7 -7 4 -19 -23 -64 -34 -57 -7 4
-8 3 -4 -5 4 -6 12 -9 17 -5 7 4 6 -2 0 -15 -37 -71 -38 -76 -18 -65 10 6 10
4 0 -7 -7 -7 -13 -23 -13 -35 0 -13 -4 -25 -9 -28 -13 -8 -14 -403 -1 -411 5
-3 10 -12 10 -18 0 -7 -4 -6 -10 3 -5 8 -10 10 -10 5 0 -6 4 -15 9 -20 5 -6
11 -23 13 -40 1 -16 7 -33 13 -37 6 -5 4 -8 -5 -8 -11 0 -12 -2 -3 -8 7 -4 13
-22 15 -40 1 -18 6 -32 11 -32 5 0 7 -9 4 -20 -3 -11 -1 -23 5 -26 5 -3 7 -12
4 -20 -3 -8 -1 -14 5 -14 6 0 9 -6 6 -14 -3 -7 0 -19 6 -26 9 -10 9 -11 -3 -4
-12 6 -11 2 3 -19 16 -24 24 -52 26 -85 1 -7 5 -11 10 -7 6 3 8 -4 6 -15 -3
-18 0 -21 22 -18 23 3 27 8 28 43 1 22 3 40 4 40 2 0 5 13 7 30 3 16 11 36 17
44 10 12 9 13 -3 6 -12 -7 -11 -3 3 18 9 14 17 36 17 47 0 13 4 18 11 14 7 -4
9 1 7 12 -2 12 4 24 17 31 20 12 20 12 0 13 -18 1 -18 2 4 11 14 5 21 15 18
23 -3 8 1 20 8 26 8 7 12 16 9 21 -3 5 2 12 11 15 9 4 14 13 11 21 -4 8 4 17
19 23 14 5 25 12 25 15 0 4 -6 3 -12 0 -7 -4 -1 3 15 15 26 21 39 49 15 34 -7
-4 -8 -3 -4 4 4 7 12 12 18 12 7 0 26 16 44 36 22 23 38 33 46 28 8 -5 8 -1
-2 11 -8 10 -10 16 -3 12 6 -4 15 -1 20 7 4 8 13 16 18 18 6 2 9 6 8 10 -2 4
6 12 17 18 12 7 18 16 13 23 -4 8 -1 7 10 -1 14 -12 16 -11 12 7 -3 15 0 18
12 14 12 -5 15 -2 10 9 -4 11 -1 14 12 11 10 -2 24 4 32 14 13 17 13 17 -6 3
-19 -14 -19 -14 -6 3 7 9 18 17 23 17 6 0 24 10 41 22 17 12 27 16 23 9 -5 -7
8 -2 27 10 19 13 33 27 31 31 -5 7 4 10 23 7 3 0 10 7 15 16 8 13 12 14 26 3
9 -7 14 -9 10 -4 -12 14 15 35 30 24 9 -8 11 -7 6 7 -5 13 -4 16 4 11 7 -4 12
-2 12 4 0 10 48 35 62 32 4 -1 4 6 1 15 -5 12 -2 15 9 10 10 -3 19 0 22 10 4
9 13 13 22 9 14 -5 15 -4 4 9 -10 12 -10 15 4 15 9 0 16 5 16 11 0 6 7 8 16 5
8 -3 13 -2 9 3 -3 5 1 12 7 14 10 4 9 6 -1 6 -10 1 -7 7 7 20 12 10 19 21 15
25 -3 3 2 6 13 6 16 0 17 2 4 10 -14 9 -7 15 14 11 5 -1 6 7 3 19 -3 11 -1 18
4 14 5 -3 9 2 9 11 0 9 4 14 9 11 5 -4 8 2 6 11 -1 10 4 29 12 42 12 18 12 22
2 15 -11 -6 -12 -5 -3 7 16 19 16 269 1 288 -10 12 -9 13 3 6 12 -6 13 -5 3 6
-7 7 -13 27 -13 45 0 18 -6 35 -12 37 -10 4 -10 6 0 6 10 1 9 6 -4 18 -16 16
-87 26 -78 11z"/>
<path d="M3154 2885 c-4 -8 -13 -15 -21 -15 -10 0 -13 -6 -9 -17 6 -17 5 -17
-8 0 -13 16 -14 16 -19 -4 -4 -15 -11 -20 -22 -15 -9 3 -13 2 -10 -4 3 -6 -5
-14 -19 -20 -14 -5 -26 -14 -26 -19 0 -5 -7 -12 -16 -15 -12 -5 -14 -3 -8 7 5
7 -1 2 -12 -11 -14 -15 -27 -22 -34 -17 -9 5 -11 4 -6 -3 4 -7 2 -12 -4 -12
-6 0 -8 -5 -4 -12 5 -7 2 -9 -9 -5 -9 3 -18 0 -21 -9 -3 -8 -13 -14 -21 -14
-9 0 -14 -4 -11 -9 3 -4 -4 -17 -17 -27 -19 -16 -20 -16 -8 -1 12 15 12 17 -3
11 -9 -3 -16 -13 -16 -21 0 -10 -6 -13 -16 -9 -8 3 -13 2 -10 -3 8 -12 -21
-34 -33 -27 -6 4 -8 -2 -6 -14 2 -12 0 -18 -6 -14 -6 3 -20 -4 -31 -16 -11
-12 -27 -19 -35 -15 -14 5 -14 3 -2 -12 7 -10 9 -15 5 -11 -5 4 -15 0 -23 -10
-14 -16 -14 -16 -9 1 3 11 2 16 -4 12 -6 -3 -10 -15 -10 -26 0 -11 -4 -17 -10
-14 -9 6 -15 -8 -11 -29 1 -5 -5 -3 -14 4 -13 11 -14 10 -9 -5 5 -13 4 -16 -4
-11 -11 7 -17 -6 -13 -28 1 -5 -4 -4 -12 3 -12 9 -15 8 -13 -6 0 -11 -5 -18
-16 -17 -10 1 -17 -1 -16 -5 2 -20 -3 -31 -14 -25 -8 5 -9 2 -5 -10 4 -10 3
-15 -3 -11 -6 3 -14 -5 -20 -19 -5 -14 -12 -26 -15 -26 -4 0 -3 6 1 13 4 7 3
9 -2 4 -5 -5 -9 -12 -9 -15 -2 -23 -18 -51 -26 -47 -5 4 -9 -3 -9 -15 0 -12
-4 -18 -10 -15 -6 3 -7 -1 -4 -9 3 -9 1 -16 -6 -16 -6 0 -8 -4 -5 -10 3 -5 1
-10 -6 -10 -8 0 -8 -4 1 -15 10 -12 9 -15 -4 -15 -10 0 -15 -4 -11 -9 3 -5 1
-12 -5 -16 -6 -4 -8 -11 -5 -16 4 -5 1 -9 -6 -9 -7 0 -9 -3 -6 -7 4 -3 1 -13
-6 -21 -10 -13 -9 -14 2 -7 10 5 12 4 7 -3 -4 -7 -15 -12 -24 -12 -15 0 -15
-2 -2 -11 11 -8 12 -12 2 -16 -6 -2 -10 -9 -6 -14 3 -5 0 -9 -7 -9 -7 0 -9 -3
-6 -7 4 -3 1 -13 -6 -21 -9 -13 -9 -14 0 -8 9 5 11 2 7 -8 -3 -9 -11 -16 -16
-16 -6 0 -5 -7 2 -16 11 -12 11 -15 1 -12 -8 2 -15 -6 -18 -17 -6 -33 -8 -40
-14 -50 -9 -17 -1 -307 10 -350 5 -22 11 -49 14 -60 3 -11 7 -27 9 -35 1 -8 6
-18 11 -21 4 -3 9 -19 10 -36 1 -17 5 -29 10 -26 4 2 7 -4 7 -14 0 -11 6 -25
13 -32 10 -11 9 -12 -1 -6 -11 6 -11 3 -1 -13 7 -12 17 -18 22 -15 5 3 4 -5
-3 -17 -7 -12 -8 -20 -3 -17 4 3 13 -6 20 -19 8 -18 8 -23 0 -18 -7 3 -2 -3
11 -15 13 -11 18 -22 12 -26 -14 -9 -13 -26 3 -23 6 2 11 -3 9 -10 -1 -6 3
-12 9 -12 5 0 7 -4 4 -10 -3 -5 1 -10 11 -10 13 0 14 -3 5 -14 -9 -10 -8 -15
4 -19 9 -4 12 -13 8 -23 -4 -12 -3 -15 5 -10 11 6 17 -6 10 -19 -2 -2 6 -11
17 -20 11 -9 13 -14 5 -10 -10 4 -9 2 3 -8 9 -8 17 -18 17 -22 0 -4 8 -14 18
-21 14 -11 14 -13 2 -14 -10 0 -5 -9 14 -25 17 -15 23 -25 15 -25 -8 -1 -3 -7
10 -14 18 -10 20 -15 10 -19 -10 -4 -10 -6 -1 -6 6 -1 12 -8 12 -17 0 -8 5
-12 10 -9 6 3 10 0 10 -9 0 -8 -6 -17 -12 -20 -7 -3 -2 -3 11 0 14 4 21 2 17
-4 -3 -5 1 -15 9 -22 8 -7 15 -20 15 -29 0 -12 2 -13 9 -3 7 11 9 11 14 -1 6
-16 39 -16 60 2 11 8 17 9 22 1 4 -7 13 -4 24 9 10 11 21 17 25 14 4 -4 4 0 0
10 -4 12 -2 16 8 12 10 -4 14 2 14 22 -1 15 -4 33 -8 39 -5 7 -9 28 -10 47 -2
19 -6 33 -10 30 -7 -4 -13 28 -9 50 0 4 -3 7 -9 7 -5 0 -10 16 -10 36 0 20 -4
33 -10 29 -5 -3 -8 7 -5 25 2 16 0 32 -5 35 -5 3 -7 12 -3 20 3 8 0 15 -7 15
-6 0 -10 8 -8 18 2 11 -4 27 -12 37 -9 11 -10 16 -2 11 6 -4 12 -2 12 3 0 6
-4 11 -9 11 -4 0 -8 18 -7 40 1 22 -3 41 -9 44 -6 2 -11 26 -10 56 1 35 -3 54
-12 57 -10 4 -9 9 4 20 10 8 12 12 6 8 -16 -8 -15 -16 -17 142 0 72 2 129 6
126 8 -4 12 12 9 31 -1 5 6 17 16 28 16 18 16 19 -1 12 -15 -6 -15 -3 4 30 11
21 18 41 15 47 -4 5 1 9 9 9 10 0 13 6 9 15 -3 10 0 15 8 13 8 -2 13 4 13 14
-1 10 3 16 10 15 6 -1 10 4 8 11 -1 8 2 11 8 7 5 -3 18 -1 27 4 11 6 13 11 5
11 -7 0 -10 5 -7 10 4 6 11 8 16 5 8 -5 13 7 11 26 -1 4 6 6 16 5 9 0 16 5 14
12 -1 8 7 16 18 19 11 3 17 10 13 16 -4 6 0 8 10 4 12 -4 14 -2 10 10 -4 11
-2 14 5 9 7 -4 12 -1 12 8 0 9 6 15 13 13 6 -1 11 6 11 15 -1 11 4 14 14 11
10 -4 13 -2 8 5 -4 7 -2 12 4 12 6 0 9 3 7 8 -5 10 30 42 38 34 3 -4 3 1 -1
11 -3 10 -1 17 5 17 6 0 11 7 11 16 0 8 7 22 16 31 8 9 13 22 9 31 -4 12 -3
13 10 2 13 -11 14 -10 9 4 -3 9 -1 16 6 16 7 0 9 8 5 20 -5 15 -3 18 9 14 11
-4 14 0 11 15 -2 11 1 23 6 26 5 4 7 10 4 15 -3 5 -1 11 5 15 15 9 12 28 -2
19 -7 -4 -2 3 10 16 19 18 21 24 10 31 -10 6 -10 9 0 9 9 0 12 52 12 225 0
205 -1 224 -17 218 -11 -4 -14 -3 -9 5 4 7 5 12 1 12 -3 0 -8 -7 -11 -15z"/>
</g>
</svg>
